<svg width="144" height="48" viewBox="0 0 144 48" fill="none" xmlns="http://www.w3.org/2000/svg">
<path d="M18.5728 47.9993C14.2149 32.8141 37.7691 26.6325 23.0428 9.35547C25.029 22.8935 2.04205 28.5928 18.5728 47.9993Z" fill="#0561D9"/>
<path d="M0.225586 30.3049C0.225586 17.6948 15.4867 9.48539 15.4867 0C32.5624 20.7456 -4.05792 24.8134 15.6925 47.9997C10.6055 46.8472 0.225586 42.915 0.225586 30.3049Z" fill="#0533BF"/>
<path d="M34.451 30.7121C34.451 42.1351 25.9832 46.4662 20.63 48.0002C18.0166 36.2753 32.2116 29.8197 30.2367 18.9717C32.6252 22.5153 34.451 26.3505 34.451 30.7121Z" fill="#72A8F2"/>
<path d="M51.2848 41.24C49.7648 41.24 48.4368 41.008 47.3008 40.544C46.1648 40.064 45.2688 39.344 44.6128 38.384C43.9728 37.424 43.6208 36.208 43.5568 34.736C43.5408 34.08 43.5328 33.376 43.5328 32.624C43.5328 31.872 43.5408 31.152 43.5568 30.464C43.6208 29.024 43.9808 27.824 44.6368 26.864C45.3088 25.888 46.2128 25.16 47.3488 24.68C48.5008 24.2 49.8128 23.96 51.2848 23.96C52.3408 23.96 53.3248 24.088 54.2368 24.344C55.1648 24.584 55.9888 24.96 56.7088 25.472C57.4288 25.968 57.9968 26.592 58.4128 27.344C58.8288 28.08 59.0448 28.944 59.0608 29.936C59.0608 30.08 59.0048 30.2 58.8928 30.296C58.7968 30.392 58.6768 30.44 58.5328 30.44H54.4768C54.2368 30.44 54.0608 30.392 53.9488 30.296C53.8368 30.2 53.7408 30.032 53.6608 29.792C53.4528 29.104 53.1488 28.64 52.7488 28.4C52.3488 28.16 51.8608 28.04 51.2848 28.04C50.5808 28.04 50.0208 28.232 49.6048 28.616C49.1888 28.984 48.9648 29.64 48.9328 30.584C48.8848 31.896 48.8848 33.24 48.9328 34.616C48.9648 35.56 49.1888 36.224 49.6048 36.608C50.0208 36.976 50.5808 37.16 51.2848 37.16C51.8608 37.16 52.3488 37.032 52.7488 36.776C53.1648 36.52 53.4688 36.064 53.6608 35.408C53.7248 35.152 53.8128 34.984 53.9248 34.904C54.0528 34.808 54.2368 34.76 54.4768 34.76H58.5328C58.6768 34.76 58.7968 34.808 58.8928 34.904C59.0048 35 59.0608 35.12 59.0608 35.264C59.0448 36.256 58.8288 37.128 58.4128 37.88C57.9968 38.616 57.4288 39.24 56.7088 39.752C55.9888 40.248 55.1648 40.624 54.2368 40.88C53.3248 41.12 52.3408 41.24 51.2848 41.24ZM61.8874 41C61.7274 41 61.5834 40.944 61.4554 40.832C61.3274 40.72 61.2634 40.568 61.2634 40.376V24.824C61.2634 24.648 61.3274 24.504 61.4554 24.392C61.5834 24.264 61.7274 24.2 61.8874 24.2H75.8554C76.0314 24.2 76.1754 24.264 76.2874 24.392C76.4154 24.504 76.4794 24.648 76.4794 24.824V40.376C76.4794 40.552 76.4154 40.704 76.2874 40.832C76.1754 40.944 76.0314 41 75.8554 41H71.9434C71.7674 41 71.6154 40.944 71.4874 40.832C71.3754 40.704 71.3194 40.552 71.3194 40.376V28.76H66.4234V40.376C66.4234 40.552 66.3594 40.704 66.2314 40.832C66.1194 40.944 65.9754 41 65.7994 41H61.8874ZM80.0983 41C79.9383 41 79.7943 40.944 79.6663 40.832C79.5383 40.704 79.4743 40.552 79.4743 40.376V24.824C79.4743 24.648 79.5383 24.504 79.6663 24.392C79.7943 24.264 79.9383 24.2 80.0983 24.2H91.8583C92.0343 24.2 92.1863 24.264 92.3143 24.392C92.4423 24.504 92.5063 24.648 92.5063 24.824V27.656C92.5063 27.816 92.4423 27.96 92.3143 28.088C92.1863 28.216 92.0343 28.28 91.8583 28.28H84.4423V30.656H91.3303C91.5063 30.656 91.6583 30.72 91.7863 30.848C91.9143 30.96 91.9783 31.104 91.9783 31.28V33.872C91.9783 34.048 91.9143 34.2 91.7863 34.328C91.6583 34.44 91.5063 34.496 91.3303 34.496H84.4423V36.92H92.0503C92.2263 36.92 92.3783 36.984 92.5063 37.112C92.6343 37.24 92.6983 37.392 92.6983 37.568V40.376C92.6983 40.552 92.6343 40.704 92.5063 40.832C92.3783 40.944 92.2263 41 92.0503 41H80.0983ZM95.778 41C95.618 41 95.474 40.944 95.346 40.832C95.218 40.72 95.154 40.568 95.154 40.376V24.824C95.154 24.648 95.218 24.504 95.346 24.392C95.474 24.264 95.618 24.2 95.778 24.2H99.69C99.866 24.2 100.01 24.264 100.122 24.392C100.25 24.504 100.314 24.648 100.314 24.824V30.248H101.25L104.466 24.704C104.546 24.576 104.658 24.464 104.802 24.368C104.962 24.256 105.162 24.2 105.402 24.2H109.794C109.938 24.2 110.058 24.256 110.154 24.368C110.25 24.464 110.298 24.584 110.298 24.728C110.298 24.808 110.274 24.896 110.226 24.992L105.834 32.264L110.658 40.208C110.69 40.256 110.706 40.344 110.706 40.472C110.706 40.616 110.65 40.744 110.538 40.856C110.442 40.952 110.322 41 110.178 41H105.666C105.378 41 105.162 40.936 105.018 40.808C104.89 40.664 104.802 40.56 104.754 40.496L101.418 34.808H100.314V40.376C100.314 40.552 100.25 40.704 100.122 40.832C100.01 40.944 99.866 41 99.69 41H95.778ZM116.936 41C116.76 41 116.608 40.944 116.48 40.832C116.368 40.704 116.312 40.552 116.312 40.376V28.664H112.184C112.008 28.664 111.856 28.608 111.728 28.496C111.616 28.368 111.56 28.216 111.56 28.04V24.824C111.56 24.648 111.616 24.504 111.728 24.392C111.856 24.264 112.008 24.2 112.184 24.2H125.672C125.848 24.2 125.992 24.264 126.104 24.392C126.232 24.504 126.296 24.648 126.296 24.824V28.04C126.296 28.216 126.232 28.368 126.104 28.496C125.992 28.608 125.848 28.664 125.672 28.664H121.544V40.376C121.544 40.552 121.48 40.704 121.352 40.832C121.24 40.944 121.096 41 120.92 41H116.936ZM128.872 41C128.712 41 128.568 40.944 128.44 40.832C128.312 40.704 128.248 40.552 128.248 40.376V24.824C128.248 24.648 128.312 24.504 128.44 24.392C128.568 24.264 128.712 24.2 128.872 24.2H135.88C137.272 24.2 138.48 24.408 139.504 24.824C140.544 25.24 141.352 25.872 141.928 26.72C142.504 27.568 142.792 28.632 142.792 29.912C142.792 31.192 142.504 32.248 141.928 33.08C141.352 33.896 140.544 34.496 139.504 34.88C138.48 35.264 137.272 35.456 135.88 35.456H133.6V40.376C133.6 40.552 133.536 40.704 133.408 40.832C133.296 40.944 133.152 41 132.976 41H128.872ZM133.504 31.592H135.76C136.224 31.592 136.616 31.456 136.936 31.184C137.272 30.896 137.44 30.456 137.44 29.864C137.44 29.416 137.312 29.008 137.056 28.64C136.8 28.272 136.368 28.088 135.76 28.088H133.504V31.592Z" fill="#0561D9"/>
</svg>
