<svg width="143" height="60" viewBox="0 0 143 60" fill="none" xmlns="http://www.w3.org/2000/svg">
<path d="M0.248215 45.3832C0.179266 45.3832 0.12066 45.361 0.072396 45.3165C0.024132 45.2647 0 45.1981 0 45.1167V37.8886C0 37.8072 0.024132 37.7406 0.072396 37.6888C0.12066 37.6369 0.179266 37.611 0.248215 37.611H5.66757C5.74341 37.611 5.80547 37.6369 5.85373 37.6888C5.902 37.7406 5.92613 37.8072 5.92613 37.8886V45.1167C5.92613 45.1907 5.902 45.2536 5.85373 45.3054C5.80547 45.3573 5.74341 45.3832 5.66757 45.3832H4.73676C4.66782 45.3832 4.60921 45.3573 4.56095 45.3054C4.51268 45.2536 4.48855 45.1907 4.48855 45.1167V38.9989H1.43758V45.1167C1.43758 45.1907 1.41345 45.2536 1.36518 45.3054C1.32381 45.3573 1.26521 45.3832 1.18936 45.3832H0.248215Z" fill="#252525"/>
<path d="M7.78273 45.3832C7.71378 45.3832 7.65517 45.3573 7.60691 45.3054C7.55865 45.2536 7.53451 45.1907 7.53451 45.1167V37.8886C7.53451 37.8072 7.55865 37.7406 7.60691 37.6888C7.65517 37.6369 7.71378 37.611 7.78273 37.611H10.5545C11.0923 37.611 11.5611 37.7036 11.961 37.8886C12.3609 38.0663 12.6712 38.3401 12.8918 38.7102C13.1125 39.0729 13.2228 39.5282 13.2228 40.0759C13.2228 40.6311 13.1125 41.09 12.8918 41.4527C12.6712 41.808 12.3609 42.0745 11.961 42.2521C11.5611 42.4298 11.0923 42.5186 10.5545 42.5186H9.01346V45.1167C9.01346 45.1907 8.98933 45.2536 8.94106 45.3054C8.89969 45.3573 8.84109 45.3832 8.76525 45.3832H7.78273ZM8.99278 41.2861H10.5027C10.9027 41.2861 11.2095 41.1862 11.4232 40.9864C11.637 40.7791 11.7438 40.4756 11.7438 40.0759C11.7438 39.7058 11.6438 39.4097 11.4439 39.1877C11.2439 38.9582 10.9302 38.8435 10.5027 38.8435H8.99278V41.2861Z" fill="#252525"/>
<path d="M17.134 45.4942C16.5204 45.4942 15.9929 45.3869 15.5516 45.1722C15.1104 44.9501 14.7656 44.6134 14.5174 44.1618C14.2692 43.7029 14.1347 43.133 14.1141 42.452C14.1072 42.1337 14.1037 41.8191 14.1037 41.5082C14.1037 41.1973 14.1072 40.879 14.1141 40.5533C14.1347 39.8798 14.2726 39.3172 14.5278 38.8657C14.7829 38.4142 15.1311 38.0737 15.5723 37.8442C16.0205 37.6148 16.5411 37.5 17.134 37.5C17.727 37.5 18.2475 37.6148 18.6957 37.8442C19.1439 38.0737 19.4955 38.4142 19.7506 38.8657C20.0057 39.3172 20.1436 39.8798 20.1643 40.5533C20.1781 40.879 20.185 41.1973 20.185 41.5082C20.185 41.8191 20.1781 42.1337 20.1643 42.452C20.1436 43.133 20.0092 43.7029 19.7609 44.1618C19.5127 44.6134 19.1645 44.9501 18.7164 45.1722C18.2751 45.3869 17.7477 45.4942 17.134 45.4942ZM17.134 44.2173C17.5822 44.2173 17.9476 44.0767 18.2303 43.7954C18.513 43.5068 18.6647 43.0404 18.6854 42.3964C18.6991 42.0708 18.706 41.771 18.706 41.4971C18.706 41.2158 18.6991 40.916 18.6854 40.5978C18.6716 40.1684 18.5957 39.8206 18.4578 39.5541C18.3268 39.2802 18.1476 39.0841 17.92 38.9656C17.6925 38.8398 17.4305 38.7769 17.134 38.7769C16.8444 38.7769 16.5859 38.8398 16.3583 38.9656C16.1308 39.0841 15.9481 39.2802 15.8102 39.5541C15.6792 39.8206 15.6068 40.1684 15.593 40.5978C15.5861 40.916 15.5827 41.2158 15.5827 41.4971C15.5827 41.771 15.5861 42.0708 15.593 42.3964C15.6137 43.0404 15.7654 43.5068 16.0481 43.7954C16.3308 44.0767 16.6927 44.2173 17.134 44.2173Z" fill="#252525"/>
<path d="M21.7913 45.3832C21.7223 45.3832 21.6637 45.3573 21.6154 45.3054C21.5672 45.2536 21.5431 45.1907 21.5431 45.1167V37.8886C21.5431 37.8072 21.5672 37.7406 21.6154 37.6888C21.6637 37.6369 21.7223 37.611 21.7913 37.611H26.3419C26.4177 37.611 26.4798 37.6369 26.528 37.6888C26.5763 37.7406 26.6004 37.8072 26.6004 37.8886V38.6214C26.6004 38.6954 26.5763 38.7583 26.528 38.8102C26.4798 38.862 26.4177 38.8879 26.3419 38.8879H22.9393V40.8531H26.1143C26.1902 40.8531 26.2522 40.879 26.3005 40.9308C26.3488 40.9753 26.3729 41.0382 26.3729 41.1196V41.808C26.3729 41.8894 26.3488 41.956 26.3005 42.0079C26.2522 42.0523 26.1902 42.0745 26.1143 42.0745H22.9393V44.1063H26.4246C26.5005 44.1063 26.5625 44.1322 26.6108 44.184C26.659 44.2359 26.6832 44.3025 26.6832 44.3839V45.1167C26.6832 45.1907 26.659 45.2536 26.6108 45.3054C26.5625 45.3573 26.5005 45.3832 26.4246 45.3832H21.7913Z" fill="#252525"/>
<path d="M28.2249 45.3832C28.1559 45.3832 28.0973 45.361 28.0491 45.3165C28.0008 45.2647 27.9767 45.1981 27.9767 45.1167V37.8886C27.9767 37.8072 28.0008 37.7406 28.0491 37.6888C28.0973 37.6369 28.1559 37.611 28.2249 37.611H29.166C29.2419 37.611 29.3005 37.6369 29.3419 37.6888C29.3901 37.7406 29.4143 37.8072 29.4143 37.8886V40.7532H30.314L31.9998 37.8109C32.0343 37.7517 32.0791 37.7036 32.1343 37.6666C32.1963 37.6295 32.2756 37.611 32.3721 37.611H33.396C33.465 37.611 33.5167 37.6332 33.5512 37.6777C33.5925 37.7221 33.6132 37.7776 33.6132 37.8442C33.6132 37.8812 33.5994 37.9256 33.5719 37.9774L31.6172 41.3639L33.758 45.0057C33.7787 45.0279 33.789 45.0686 33.789 45.1278C33.789 45.1944 33.7649 45.2536 33.7166 45.3054C33.6753 45.3573 33.6201 45.3832 33.5512 45.3832H32.4859C32.3963 45.3832 32.3273 45.361 32.2791 45.3165C32.2377 45.2721 32.2032 45.2314 32.1756 45.1944L30.3658 42.1411H29.4143V45.1167C29.4143 45.1907 29.3901 45.2536 29.3419 45.3054C29.3005 45.3573 29.2419 45.3832 29.166 45.3832H28.2249Z" fill="#252525"/>
<path d="M36.7461 45.3832C36.6772 45.3832 36.6186 45.3573 36.5703 45.3054C36.522 45.2536 36.4979 45.1907 36.4979 45.1167V38.9767H34.5846C34.5156 38.9767 34.457 38.9508 34.4088 38.899C34.3605 38.8472 34.3364 38.7843 34.3364 38.7102V37.8886C34.3364 37.8072 34.3605 37.7406 34.4088 37.6888C34.457 37.6369 34.5156 37.611 34.5846 37.611H39.8592C39.935 37.611 39.997 37.6369 40.0453 37.6888C40.0936 37.7406 40.1177 37.8072 40.1177 37.8886V38.7102C40.1177 38.7843 40.0936 38.8472 40.0453 38.899C39.997 38.9508 39.935 38.9767 39.8592 38.9767H37.9562V45.1167C37.9562 45.1907 37.932 45.2536 37.8838 45.3054C37.8355 45.3573 37.7735 45.3832 37.6976 45.3832H36.7461Z" fill="#252525"/>
<path d="M41.4153 45.3832C41.3464 45.3832 41.2878 45.361 41.2395 45.3165C41.1913 45.2647 41.1671 45.1981 41.1671 45.1167V37.8886C41.1671 37.8072 41.1913 37.7406 41.2395 37.6888C41.2878 37.6369 41.3464 37.611 41.4153 37.611H42.3565C42.4323 37.611 42.4909 37.6369 42.5323 37.6888C42.5806 37.7406 42.6047 37.8072 42.6047 37.8886V40.7532H45.6557V37.8886C45.6557 37.8072 45.6798 37.7406 45.7281 37.6888C45.7763 37.6369 45.8349 37.611 45.9039 37.611H46.8347C46.9105 37.611 46.9726 37.6369 47.0209 37.6888C47.0691 37.7406 47.0933 37.8072 47.0933 37.8886V45.1167C47.0933 45.1907 47.0691 45.2536 47.0209 45.3054C46.9726 45.3573 46.9105 45.3832 46.8347 45.3832H45.9039C45.8349 45.3832 45.7763 45.3573 45.7281 45.3054C45.6798 45.2536 45.6557 45.1907 45.6557 45.1167V42.1411H42.6047V45.1167C42.6047 45.1907 42.5806 45.2536 42.5323 45.3054C42.4909 45.3573 42.4323 45.3832 42.3565 45.3832H41.4153Z" fill="#252525"/>
<path d="M51.4837 45.4942C50.8701 45.4942 50.3426 45.3869 49.9014 45.1722C49.4601 44.9501 49.1153 44.6134 48.8671 44.1618C48.6189 43.7029 48.4845 43.133 48.4638 42.452C48.4569 42.1337 48.4534 41.8191 48.4534 41.5082C48.4534 41.1973 48.4569 40.879 48.4638 40.5533C48.4845 39.8798 48.6224 39.3172 48.8775 38.8657C49.1326 38.4142 49.4808 38.0737 49.922 37.8442C50.3702 37.6148 50.8908 37.5 51.4837 37.5C52.0767 37.5 52.5972 37.6148 53.0454 37.8442C53.4936 38.0737 53.8452 38.4142 54.1003 38.8657C54.3554 39.3172 54.4933 39.8798 54.514 40.5533C54.5278 40.879 54.5347 41.1973 54.5347 41.5082C54.5347 41.8191 54.5278 42.1337 54.514 42.452C54.4933 43.133 54.3589 43.7029 54.1107 44.1618C53.8624 44.6134 53.5143 44.9501 53.0661 45.1722C52.6248 45.3869 52.0974 45.4942 51.4837 45.4942ZM51.4837 44.2173C51.9319 44.2173 52.2973 44.0767 52.58 43.7954C52.8627 43.5068 53.0144 43.0404 53.0351 42.3964C53.0488 42.0708 53.0557 41.771 53.0557 41.4971C53.0557 41.2158 53.0488 40.916 53.0351 40.5978C53.0213 40.1684 52.9454 39.8206 52.8075 39.5541C52.6765 39.2802 52.4973 39.0841 52.2697 38.9656C52.0422 38.8398 51.7802 38.7769 51.4837 38.7769C51.1941 38.7769 50.9356 38.8398 50.708 38.9656C50.4805 39.0841 50.2978 39.2802 50.1599 39.5541C50.0289 39.8206 49.9565 40.1684 49.9427 40.5978C49.9358 40.916 49.9324 41.2158 49.9324 41.4971C49.9324 41.771 49.9358 42.0708 49.9427 42.3964C49.9634 43.0404 50.1151 43.5068 50.3978 43.7954C50.6805 44.0767 51.0424 44.2173 51.4837 44.2173Z" fill="#252525"/>
<path d="M55.9858 42.6851C55.91 42.6851 55.8479 42.6592 55.7997 42.6074C55.7583 42.5556 55.7376 42.4927 55.7376 42.4186V41.6859C55.7376 41.6118 55.7583 41.5489 55.7997 41.4971C55.8479 41.4453 55.91 41.4194 55.9858 41.4194H59.1609C59.2299 41.4194 59.2885 41.4453 59.3367 41.4971C59.385 41.5489 59.4091 41.6118 59.4091 41.6859V42.4186C59.4091 42.4927 59.385 42.5556 59.3367 42.6074C59.2885 42.6592 59.2299 42.6851 59.1609 42.6851H55.9858Z" fill="#252525"/>
<path d="M63.6543 45.4942C63.0131 45.4942 62.4684 45.3758 62.0202 45.1389C61.579 44.8946 61.2411 44.5505 61.0067 44.1063C60.7723 43.6548 60.6413 43.1144 60.6137 42.4853C60.6068 42.1818 60.6033 41.8561 60.6033 41.5082C60.6033 41.1603 60.6068 40.8272 60.6137 40.5089C60.6413 39.8872 60.7723 39.3505 61.0067 38.899C61.248 38.4475 61.5893 38.1033 62.0306 37.8664C62.4787 37.6221 63.02 37.5 63.6543 37.5C64.1232 37.5 64.5438 37.5666 64.9161 37.6999C65.2884 37.8331 65.6056 38.0181 65.8676 38.255C66.1296 38.4845 66.333 38.7546 66.4778 39.0655C66.6226 39.3764 66.6984 39.7132 66.7053 40.0759C66.7122 40.1425 66.6915 40.198 66.6432 40.2424C66.6019 40.2869 66.5502 40.3091 66.4881 40.3091H65.5056C65.4298 40.3091 65.3677 40.2906 65.3194 40.2536C65.2712 40.2091 65.2367 40.1388 65.216 40.0426C65.1057 39.5541 64.9161 39.221 64.6472 39.0433C64.3783 38.8657 64.0439 38.7769 63.644 38.7769C63.182 38.7769 62.8131 38.9175 62.5373 39.1988C62.2616 39.4726 62.1133 39.9279 62.0926 40.5644C62.072 41.1714 62.072 41.7932 62.0926 42.4298C62.1133 43.0663 62.2616 43.5253 62.5373 43.8065C62.8131 44.0804 63.182 44.2173 63.644 44.2173C64.0439 44.2173 64.3783 44.1285 64.6472 43.9509C64.9161 43.7658 65.1057 43.4327 65.216 42.9516C65.2367 42.848 65.2712 42.7777 65.3194 42.7407C65.3677 42.7036 65.4298 42.6851 65.5056 42.6851H66.4881C66.5502 42.6851 66.6019 42.7073 66.6432 42.7518C66.6915 42.7962 66.7122 42.8517 66.7053 42.9183C66.6984 43.281 66.6226 43.6178 66.4778 43.9287C66.333 44.2396 66.1296 44.5134 65.8676 44.7503C65.6056 44.9798 65.2884 45.1611 64.9161 45.2943C64.5438 45.4276 64.1232 45.4942 63.6543 45.4942Z" fill="#252525"/>
<path d="M69.7728 45.3832C69.7038 45.3832 69.6452 45.3573 69.5969 45.3054C69.5487 45.2536 69.5245 45.1907 69.5245 45.1167V38.9767H67.6112C67.5423 38.9767 67.4837 38.9508 67.4354 38.899C67.3871 38.8472 67.363 38.7843 67.363 38.7102V37.8886C67.363 37.8072 67.3871 37.7406 67.4354 37.6888C67.4837 37.6369 67.5423 37.611 67.6112 37.611H72.8858C72.9616 37.611 73.0237 37.6369 73.0719 37.6888C73.1202 37.7406 73.1443 37.8072 73.1443 37.8886V38.7102C73.1443 38.7843 73.1202 38.8472 73.0719 38.899C73.0237 38.9508 72.9616 38.9767 72.8858 38.9767H70.9828V45.1167C70.9828 45.1907 70.9587 45.2536 70.9104 45.3054C70.8621 45.3573 70.8001 45.3832 70.7242 45.3832H69.7728Z" fill="#252525"/>
<path d="M74.442 45.3832C74.373 45.3832 74.3144 45.3573 74.2662 45.3054C74.2179 45.2536 74.1938 45.1907 74.1938 45.1167V37.8886C74.1938 37.8072 74.2179 37.7406 74.2662 37.6888C74.3144 37.6369 74.373 37.611 74.442 37.611H77.2137C77.7515 37.611 78.2203 37.7036 78.6203 37.8886C79.0202 38.0663 79.3304 38.3401 79.5511 38.7102C79.7717 39.0729 79.882 39.5282 79.882 40.0759C79.882 40.6311 79.7717 41.09 79.5511 41.4527C79.3304 41.808 79.0202 42.0745 78.6203 42.2521C78.2203 42.4298 77.7515 42.5186 77.2137 42.5186H75.6727V45.1167C75.6727 45.1907 75.6486 45.2536 75.6003 45.3054C75.5589 45.3573 75.5003 45.3832 75.4245 45.3832H74.442ZM75.652 41.2861H77.162C77.5619 41.2861 77.8687 41.1862 78.0824 40.9864C78.2962 40.7791 78.4031 40.4756 78.4031 40.0759C78.4031 39.7058 78.3031 39.4097 78.1031 39.1877C77.9032 38.9582 77.5895 38.8435 77.162 38.8435H75.652V41.2861Z" fill="#252525"/>
<path d="M83.7932 45.4942C83.1796 45.4942 82.6521 45.3869 82.2109 45.1722C81.7696 44.9501 81.4249 44.6134 81.1767 44.1618C80.9284 43.7029 80.794 43.133 80.7733 42.452C80.7664 42.1337 80.763 41.8191 80.763 41.5082C80.763 41.1973 80.7664 40.879 80.7733 40.5533C80.794 39.8798 80.9319 39.3172 81.187 38.8657C81.4421 38.4142 81.7903 38.0737 82.2316 37.8442C82.6797 37.6148 83.2003 37.5 83.7932 37.5C84.3862 37.5 84.9068 37.6148 85.3549 37.8442C85.8031 38.0737 86.1547 38.4142 86.4098 38.8657C86.665 39.3172 86.8029 39.8798 86.8235 40.5533C86.8373 40.879 86.8442 41.1973 86.8442 41.5082C86.8442 41.8191 86.8373 42.1337 86.8235 42.452C86.8029 43.133 86.6684 43.7029 86.4202 44.1618C86.172 44.6134 85.8238 44.9501 85.3756 45.1722C84.9343 45.3869 84.4069 45.4942 83.7932 45.4942ZM83.7932 44.2173C84.2414 44.2173 84.6068 44.0767 84.8895 43.7954C85.1722 43.5068 85.3239 43.0404 85.3446 42.3964C85.3584 42.0708 85.3653 41.771 85.3653 41.4971C85.3653 41.2158 85.3584 40.916 85.3446 40.5978C85.3308 40.1684 85.2549 39.8206 85.117 39.5541C84.986 39.2802 84.8068 39.0841 84.5793 38.9656C84.3517 38.8398 84.0897 38.7769 83.7932 38.7769C83.5037 38.7769 83.2451 38.8398 83.0176 38.9656C82.79 39.0841 82.6073 39.2802 82.4694 39.5541C82.3384 39.8206 82.266 40.1684 82.2522 40.5978C82.2453 40.916 82.2419 41.2158 82.2419 41.4971C82.2419 41.771 82.2453 42.0708 82.2522 42.3964C82.2729 43.0404 82.4246 43.5068 82.7073 43.7954C82.99 44.0767 83.352 44.2173 83.7932 44.2173Z" fill="#252525"/>
<path d="M88.4505 45.3832C88.3816 45.3832 88.323 45.3573 88.2747 45.3054C88.2264 45.2536 88.2023 45.187 88.2023 45.1056V37.8886C88.2023 37.8072 88.2264 37.7406 88.2747 37.6888C88.323 37.6369 88.385 37.611 88.4609 37.611H89.3917C89.4675 37.611 89.5261 37.6369 89.5675 37.6888C89.6157 37.7406 89.6399 37.8072 89.6399 37.8886V42.9849L93.0425 37.7887C93.0701 37.7517 93.108 37.7147 93.1562 37.6777C93.2045 37.6332 93.2666 37.611 93.3424 37.611H94.2008C94.2698 37.611 94.3284 37.6369 94.3766 37.6888C94.4249 37.7406 94.449 37.8072 94.449 37.8886V45.1167C94.449 45.1907 94.4249 45.2536 94.3766 45.3054C94.3284 45.3573 94.2698 45.3832 94.2008 45.3832H93.27C93.1942 45.3832 93.1321 45.3573 93.0838 45.3054C93.0356 45.2536 93.0115 45.1907 93.0115 45.1167V40.1203L89.6192 45.2055C89.5985 45.2351 89.564 45.2721 89.5158 45.3165C89.4675 45.361 89.402 45.3832 89.3193 45.3832H88.4505Z" fill="#252525"/>
<path d="M97.9009 45.3832C97.832 45.3832 97.7734 45.3573 97.7251 45.3054C97.6768 45.2536 97.6527 45.1907 97.6527 45.1167V38.9767H95.7394C95.6704 38.9767 95.6118 38.9508 95.5636 38.899C95.5153 38.8472 95.4912 38.7843 95.4912 38.7102V37.8886C95.4912 37.8072 95.5153 37.7406 95.5636 37.6888C95.6118 37.6369 95.6704 37.611 95.7394 37.611H101.014C101.09 37.611 101.152 37.6369 101.2 37.6888C101.248 37.7406 101.273 37.8072 101.273 37.8886V38.7102C101.273 38.7843 101.248 38.8472 101.2 38.899C101.152 38.9508 101.09 38.9767 101.014 38.9767H99.111V45.1167C99.111 45.1907 99.0868 45.2536 99.0386 45.3054C98.9903 45.3573 98.9283 45.3832 98.8524 45.3832H97.9009Z" fill="#252525"/>
<path d="M102.57 45.3832C102.501 45.3832 102.443 45.3573 102.394 45.3054C102.346 45.2536 102.322 45.1907 102.322 45.1167V37.8886C102.322 37.8072 102.346 37.7406 102.394 37.6888C102.443 37.6369 102.501 37.611 102.57 37.611H107.121C107.197 37.611 107.259 37.6369 107.307 37.6888C107.355 37.7406 107.379 37.8072 107.379 37.8886V38.6214C107.379 38.6954 107.355 38.7583 107.307 38.8102C107.259 38.862 107.197 38.8879 107.121 38.8879H103.718V40.8531H106.893C106.969 40.8531 107.031 40.879 107.079 40.9308C107.128 40.9753 107.152 41.0382 107.152 41.1196V41.808C107.152 41.8894 107.128 41.956 107.079 42.0079C107.031 42.0523 106.969 42.0745 106.893 42.0745H103.718V44.1063H107.203C107.279 44.1063 107.341 44.1322 107.39 44.184C107.438 44.2359 107.462 44.3025 107.462 44.3839V45.1167C107.462 45.1907 107.438 45.2536 107.39 45.3054C107.341 45.3573 107.279 45.3832 107.203 45.3832H102.57Z" fill="#252525"/>
<path d="M113.544 45.3832C113.475 45.3832 113.416 45.3573 113.368 45.3054C113.32 45.2536 113.296 45.1907 113.296 45.1167V38.9989H111.052V40.3979C111.052 41.2862 111.007 42.0449 110.917 42.674C110.834 43.3032 110.696 43.8139 110.503 44.2062C110.31 44.5911 110.048 44.8798 109.717 45.0723C109.386 45.2573 108.973 45.3573 108.476 45.3721C108.407 45.3795 108.345 45.3573 108.29 45.3054C108.242 45.2462 108.218 45.1796 108.218 45.1056V44.2729C108.218 44.1174 108.297 44.0286 108.456 44.0064C108.662 43.9694 108.838 43.8658 108.983 43.6955C109.135 43.5253 109.259 43.2847 109.355 42.9738C109.459 42.6629 109.535 42.278 109.583 41.8191C109.631 41.3528 109.655 40.8124 109.655 40.1981V37.8775C109.655 37.8035 109.679 37.7406 109.728 37.6888C109.776 37.6369 109.835 37.611 109.904 37.611H114.475C114.551 37.611 114.613 37.6369 114.661 37.6888C114.709 37.7406 114.733 37.8072 114.733 37.8886V45.1167C114.733 45.1907 114.709 45.2536 114.661 45.3054C114.613 45.3573 114.551 45.3832 114.475 45.3832H113.544Z" fill="#252525"/>
<path d="M116.599 45.3832C116.53 45.3832 116.471 45.3573 116.423 45.3054C116.375 45.2536 116.351 45.1907 116.351 45.1167V37.8775C116.351 37.8035 116.375 37.7406 116.423 37.6888C116.471 37.6369 116.53 37.611 116.599 37.611H117.54C117.616 37.611 117.674 37.6369 117.716 37.6888C117.764 37.7406 117.788 37.8035 117.788 37.8775V40.4201H119.122C119.943 40.4201 120.577 40.6274 121.025 41.0419C121.474 41.449 121.698 42.056 121.698 42.8628C121.698 43.3291 121.601 43.7547 121.408 44.1396C121.215 44.5245 120.929 44.828 120.55 45.0501C120.17 45.2721 119.695 45.3832 119.122 45.3832H116.599ZM117.788 44.1507H119.06C119.433 44.1507 119.719 44.0323 119.919 43.7954C120.119 43.5512 120.219 43.2366 120.219 42.8517C120.219 42.452 120.119 42.1522 119.919 41.9523C119.726 41.7525 119.44 41.6525 119.06 41.6525H117.788V44.1507Z" fill="#252525"/>
<path d="M123.123 45.3832C123.054 45.3832 122.996 45.361 122.948 45.3165C122.899 45.2647 122.875 45.1981 122.875 45.1167V37.8886C122.875 37.8072 122.899 37.7406 122.948 37.6888C122.996 37.6369 123.054 37.611 123.123 37.611H124.065C124.14 37.611 124.199 37.6369 124.24 37.6888C124.289 37.7406 124.313 37.8072 124.313 37.8886V40.7532H127.364V37.8886C127.364 37.8072 127.388 37.7406 127.436 37.6888C127.484 37.6369 127.543 37.611 127.612 37.611H128.543C128.619 37.611 128.681 37.6369 128.729 37.6888C128.777 37.7406 128.801 37.8072 128.801 37.8886V45.1167C128.801 45.1907 128.777 45.2536 128.729 45.3054C128.681 45.3573 128.619 45.3832 128.543 45.3832H127.612C127.543 45.3832 127.484 45.3573 127.436 45.3054C127.388 45.2536 127.364 45.1907 127.364 45.1167V42.1411H124.313V45.1167C124.313 45.1907 124.289 45.2536 124.24 45.3054C124.199 45.3573 124.14 45.3832 124.065 45.3832H123.123Z" fill="#252525"/>
<path d="M129.965 45.3832C129.91 45.3832 129.858 45.361 129.81 45.3165C129.769 45.2721 129.748 45.2166 129.748 45.15C129.748 45.1204 129.755 45.0871 129.768 45.0501L132.261 37.8886C132.282 37.8146 132.32 37.7517 132.375 37.6999C132.437 37.6406 132.52 37.611 132.623 37.611H133.75C133.854 37.611 133.933 37.6406 133.988 37.6999C134.043 37.7517 134.085 37.8146 134.112 37.8886L136.605 45.0501C136.612 45.0871 136.615 45.1204 136.615 45.15C136.615 45.2166 136.594 45.2721 136.553 45.3165C136.512 45.361 136.463 45.3832 136.408 45.3832H135.508C135.412 45.3832 135.34 45.361 135.291 45.3165C135.25 45.2647 135.222 45.2166 135.209 45.1722L134.722 43.8176H131.651L131.165 45.1722C131.151 45.2166 131.12 45.2647 131.072 45.3165C131.03 45.361 130.961 45.3832 130.865 45.3832H129.965ZM132.013 42.5408H134.36L133.181 39.1099L132.013 42.5408Z" fill="#252525"/>
<path d="M141.821 45.3832C141.752 45.3832 141.69 45.3573 141.635 45.3054C141.587 45.2536 141.562 45.1907 141.562 45.1167V42.5741H140.042C139.559 42.5741 139.135 42.4779 138.77 42.2854C138.405 42.0856 138.122 41.8043 137.922 41.4416C137.722 41.0715 137.622 40.6311 137.622 40.1203C137.622 39.6614 137.719 39.2432 137.912 38.8657C138.105 38.4882 138.391 38.1847 138.77 37.9552C139.156 37.7258 139.632 37.611 140.197 37.611H142.752C142.828 37.611 142.886 37.6369 142.928 37.6888C142.976 37.7406 143 37.8035 143 37.8775V45.1167C143 45.1907 142.976 45.2536 142.928 45.3054C142.886 45.3573 142.828 45.3832 142.752 45.3832H141.821ZM137.684 45.3832C137.629 45.3832 137.581 45.361 137.539 45.3165C137.498 45.2721 137.477 45.2166 137.477 45.15C137.477 45.113 137.488 45.0723 137.508 45.0279L139.215 42.0411L140.58 42.2854L139.039 45.0834C138.998 45.1574 138.946 45.2277 138.884 45.2943C138.829 45.3536 138.742 45.3832 138.625 45.3832H137.684ZM140.259 41.3195H141.562V38.8435H140.259C139.894 38.8435 139.608 38.9656 139.401 39.2099C139.201 39.4467 139.101 39.7539 139.101 40.1314C139.101 40.5163 139.197 40.8124 139.391 41.0197C139.584 41.2195 139.873 41.3195 140.259 41.3195Z" fill="#252525"/>
<path d="M36.8894 58.5566C36.2757 58.5566 35.7483 58.4493 35.307 58.2346C34.8657 58.0125 34.521 57.6758 34.2728 57.2242C34.0246 56.7653 33.8901 56.1954 33.8694 55.5144C33.8625 55.1961 33.8591 54.8815 33.8591 54.5706C33.8591 54.2597 33.8625 53.9414 33.8694 53.6157C33.8901 52.9422 34.028 52.3796 34.2831 51.9281C34.5382 51.4766 34.8864 51.1361 35.3277 50.9066C35.7759 50.6772 36.2964 50.5624 36.8894 50.5624C37.4823 50.5624 38.0029 50.6772 38.4511 50.9066C38.8992 51.1361 39.2509 51.4766 39.506 51.9281C39.7611 52.3796 39.899 52.9422 39.9197 53.6157C39.9335 53.9414 39.9404 54.2597 39.9404 54.5706C39.9404 54.8815 39.9335 55.1961 39.9197 55.5144C39.899 56.1954 39.7645 56.7653 39.5163 57.2242C39.2681 57.6758 38.9199 58.0125 38.4718 58.2346C38.0305 58.4493 37.503 58.5566 36.8894 58.5566ZM36.8894 57.2798C37.3376 57.2798 37.703 57.1391 37.9857 56.8578C38.2684 56.5692 38.42 56.1028 38.4407 55.4589C38.4545 55.1332 38.4614 54.8334 38.4614 54.5595C38.4614 54.2782 38.4545 53.9785 38.4407 53.6602C38.4269 53.2309 38.3511 52.883 38.2132 52.6165C38.0822 52.3426 37.9029 52.1465 37.6754 52.028C37.4479 51.9022 37.1859 51.8393 36.8894 51.8393C36.5998 51.8393 36.3412 51.9022 36.1137 52.028C35.8862 52.1465 35.7035 52.3426 35.5656 52.6165C35.4346 52.883 35.3622 53.2309 35.3484 53.6602C35.3415 53.9785 35.338 54.2782 35.338 54.5595C35.338 54.8334 35.3415 55.1332 35.3484 55.4589C35.3691 56.1028 35.5208 56.5692 35.8034 56.8578C36.0861 57.1391 36.4481 57.2798 36.8894 57.2798Z" fill="#252525"/>
<path d="M41.5466 58.4456C41.4777 58.4456 41.4191 58.4197 41.3708 58.3679C41.3226 58.3161 41.2984 58.2531 41.2984 58.1791V50.951C41.2984 50.8696 41.3226 50.803 41.3708 50.7512C41.4191 50.6994 41.4777 50.6734 41.5466 50.6734H44.3184C44.8562 50.6734 45.325 50.766 45.7249 50.951C46.1248 51.1287 46.4351 51.4025 46.6557 51.7727C46.8764 52.1353 46.9867 52.5906 46.9867 53.1383C46.9867 53.6935 46.8764 54.1524 46.6557 54.5151C46.4351 54.8704 46.1248 55.1369 45.7249 55.3145C45.325 55.4922 44.8562 55.581 44.3184 55.581H42.7774V58.1791C42.7774 58.2531 42.7532 58.3161 42.705 58.3679C42.6636 58.4197 42.605 58.4456 42.5292 58.4456H41.5466ZM42.7567 54.3486H44.2667C44.6666 54.3486 44.9734 54.2486 45.1871 54.0488C45.4009 53.8415 45.5077 53.538 45.5077 53.1383C45.5077 52.7682 45.4078 52.4721 45.2078 52.2501C45.0079 52.0206 44.6941 51.9059 44.2667 51.9059H42.7567V54.3486Z" fill="#252525"/>
<path d="M48.3641 58.4456C48.2951 58.4456 48.2365 58.4197 48.1882 58.3679C48.14 58.3161 48.1159 58.2531 48.1159 58.1791V50.951C48.1159 50.8696 48.14 50.803 48.1882 50.7512C48.2365 50.6994 48.2951 50.6734 48.3641 50.6734H52.5837C52.6596 50.6734 52.7216 50.6994 52.7699 50.7512C52.8181 50.803 52.8423 50.8696 52.8423 50.951V51.7282C52.8423 51.8022 52.8181 51.8652 52.7699 51.917C52.7216 51.9688 52.6596 51.9947 52.5837 51.9947H49.5534V58.1791C49.5534 58.2531 49.5293 58.3161 49.481 58.3679C49.4397 58.4197 49.3811 58.4456 49.3052 58.4456H48.3641Z" fill="#252525"/>
<path d="M53.2867 58.4456C53.2315 58.4456 53.1798 58.4234 53.1315 58.379C53.0902 58.3346 53.0695 58.279 53.0695 58.2124C53.0695 58.1828 53.0764 58.1495 53.0902 58.1125L55.5827 50.951C55.6033 50.877 55.6413 50.8141 55.6964 50.7623C55.7585 50.7031 55.8412 50.6734 55.9446 50.6734H57.0719C57.1754 50.6734 57.2547 50.7031 57.3098 50.7623C57.365 50.8141 57.4063 50.877 57.4339 50.951L59.9264 58.1125C59.9333 58.1495 59.9368 58.1828 59.9368 58.2124C59.9368 58.279 59.9161 58.3346 59.8747 58.379C59.8333 58.4234 59.7851 58.4456 59.7299 58.4456H58.8301C58.7336 58.4456 58.6612 58.4234 58.6129 58.379C58.5716 58.3272 58.544 58.279 58.5302 58.2346L58.0441 56.8801H54.9725L54.4864 58.2346C54.4726 58.279 54.4416 58.3272 54.3933 58.379C54.3519 58.4234 54.283 58.4456 54.1865 58.4456H53.2867ZM55.3344 55.6032H57.6821L56.5031 52.1724L55.3344 55.6032Z" fill="#252525"/>
<path d="M61.1505 58.4456C61.0816 58.4456 61.023 58.4234 60.9747 58.379C60.9264 58.3272 60.9023 58.2605 60.9023 58.1791V50.951C60.9023 50.8696 60.9264 50.803 60.9747 50.7512C61.023 50.6994 61.0816 50.6734 61.1505 50.6734H62.0917C62.1675 50.6734 62.2261 50.6994 62.2675 50.7512C62.3158 50.803 62.3399 50.8696 62.3399 50.951V53.8156H65.3909V50.951C65.3909 50.8696 65.415 50.803 65.4632 50.7512C65.5115 50.6994 65.5701 50.6734 65.6391 50.6734H66.5699C66.6457 50.6734 66.7078 50.6994 66.756 50.7512C66.8043 50.803 66.8284 50.8696 66.8284 50.951V58.1791C66.8284 58.2531 66.8043 58.3161 66.756 58.3679C66.7078 58.4197 66.6457 58.4456 66.5699 58.4456H65.6391C65.5701 58.4456 65.5115 58.4197 65.4632 58.3679C65.415 58.3161 65.3909 58.2531 65.3909 58.1791V55.2035H62.3399V58.1791C62.3399 58.2531 62.3158 58.3161 62.2675 58.3679C62.2261 58.4197 62.1675 58.4456 62.0917 58.4456H61.1505Z" fill="#252525"/>
<path d="M68.685 58.4456C68.6161 58.4456 68.5575 58.4197 68.5092 58.3679C68.4609 58.3161 68.4368 58.2494 68.4368 58.168V50.951C68.4368 50.8696 68.4609 50.803 68.5092 50.7512C68.5575 50.6994 68.6195 50.6734 68.6954 50.6734H69.6262C69.702 50.6734 69.7606 50.6994 69.802 50.7512C69.8503 50.803 69.8744 50.8696 69.8744 50.951V56.0473L73.277 50.8511C73.3046 50.8141 73.3425 50.7771 73.3908 50.7401C73.439 50.6957 73.5011 50.6734 73.5769 50.6734H74.4353C74.5043 50.6734 74.5629 50.6994 74.6112 50.7512C74.6594 50.803 74.6836 50.8696 74.6836 50.951V58.1791C74.6836 58.2531 74.6594 58.3161 74.6112 58.3679C74.5629 58.4197 74.5043 58.4456 74.4353 58.4456H73.5045C73.4287 58.4456 73.3666 58.4197 73.3184 58.3679C73.2701 58.3161 73.246 58.2531 73.246 58.1791V53.1827L69.8537 58.2679C69.833 58.2975 69.7985 58.3346 69.7503 58.379C69.702 58.4234 69.6365 58.4456 69.5538 58.4456H68.685Z" fill="#252525"/>
<path d="M78.7457 58.5566C78.2699 58.5566 77.8562 58.5011 77.5046 58.3901C77.1529 58.2716 76.8633 58.1162 76.6358 57.9237C76.4083 57.7313 76.229 57.5129 76.098 57.2687C75.9739 57.017 75.9015 56.7579 75.8808 56.4914C75.8739 56.4248 75.8912 56.373 75.9325 56.336C75.9808 56.2916 76.036 56.2694 76.098 56.2694H77.0288C77.0978 56.2694 77.1564 56.2879 77.2046 56.3249C77.2529 56.3545 77.2943 56.41 77.3288 56.4914C77.4115 56.7283 77.5666 56.9208 77.7942 57.0688C78.0217 57.2168 78.3285 57.2909 78.7146 57.2909C79.0042 57.2909 79.2593 57.2465 79.48 57.1576C79.7006 57.0688 79.873 56.943 79.9971 56.7801C80.1281 56.6099 80.1936 56.41 80.1936 56.1806C80.1936 55.8179 80.0695 55.5403 79.8212 55.3478C79.5799 55.1554 79.2421 55.0592 78.8077 55.0592H78.0631C77.9872 55.0592 77.9252 55.0332 77.8769 54.9814C77.8355 54.9222 77.8148 54.8556 77.8148 54.7816V54.1376C77.8148 54.0562 77.8355 53.9896 77.8769 53.9377C77.9252 53.8859 77.9872 53.86 78.0631 53.86H78.7767C79.1352 53.86 79.4248 53.7786 79.6454 53.6157C79.873 53.4529 79.9867 53.1938 79.9867 52.8385C79.9867 52.6387 79.9316 52.4647 79.8212 52.3167C79.7178 52.1613 79.573 52.0428 79.3869 51.9614C79.2007 51.88 78.987 51.8393 78.7457 51.8393C78.3802 51.8393 78.0803 51.9059 77.8459 52.0391C77.6114 52.1724 77.4666 52.3759 77.4115 52.6498C77.3839 52.7238 77.3494 52.7793 77.3081 52.8163C77.2667 52.8459 77.2115 52.8608 77.1426 52.8608H76.1808C76.1187 52.8608 76.0635 52.8386 76.0153 52.7941C75.9739 52.7497 75.9567 52.6942 75.9636 52.6276C75.9843 52.3537 76.0532 52.0946 76.1704 51.8504C76.2945 51.5987 76.4704 51.3766 76.6979 51.1842C76.9254 50.9917 77.2081 50.84 77.5459 50.729C77.8907 50.6179 78.2975 50.5624 78.7663 50.5624C79.3455 50.5624 79.8316 50.6661 80.2246 50.8733C80.6176 51.0732 80.9175 51.3359 81.1244 51.6616C81.3381 51.9799 81.445 52.3315 81.445 52.7164C81.445 52.9162 81.4209 53.1198 81.3726 53.3271C81.3243 53.5269 81.2381 53.7157 81.114 53.8933C80.9968 54.071 80.8348 54.2264 80.6279 54.3597C80.8762 54.4929 81.0761 54.6594 81.2278 54.8593C81.3864 55.0517 81.5001 55.2664 81.5691 55.5033C81.6449 55.7401 81.6829 55.9807 81.6829 56.225C81.6829 56.6913 81.5622 57.0984 81.3209 57.4463C81.0864 57.7942 80.7486 58.0681 80.3073 58.2679C79.8661 58.4604 79.3455 58.5566 78.7457 58.5566Z" fill="#252525"/>
<path d="M82.5359 58.4456C82.4808 58.4456 82.4291 58.4234 82.3808 58.379C82.3394 58.3346 82.3188 58.279 82.3188 58.2124C82.3188 58.1828 82.3256 58.1495 82.3394 58.1125L84.8319 50.951C84.8526 50.877 84.8905 50.8141 84.9457 50.7623C85.0077 50.7031 85.0905 50.6734 85.1939 50.6734H86.3212C86.4246 50.6734 86.5039 50.7031 86.5591 50.7623C86.6142 50.8141 86.6556 50.877 86.6832 50.951L89.1757 58.1125C89.1826 58.1495 89.186 58.1828 89.186 58.2124C89.186 58.279 89.1653 58.3346 89.124 58.379C89.0826 58.4234 89.0343 58.4456 88.9792 58.4456H88.0794C87.9829 58.4456 87.9105 58.4234 87.8622 58.379C87.8208 58.3272 87.7933 58.279 87.7795 58.2346L87.2934 56.8801H84.2217L83.7356 58.2346C83.7219 58.279 83.6908 58.3272 83.6426 58.379C83.6012 58.4234 83.5322 58.4456 83.4357 58.4456H82.5359ZM84.5837 55.6032H86.9314L85.7524 52.1724L84.5837 55.6032Z" fill="#252525"/>
<path d="M95.6433 60C95.5675 60 95.5054 59.9741 95.4572 59.9223C95.4158 59.8705 95.3951 59.8076 95.3951 59.7335V58.4456H90.3998C90.3308 58.4456 90.2722 58.4197 90.224 58.3679C90.1757 58.3161 90.1516 58.2494 90.1516 58.168V50.9399C90.1516 50.8585 90.1757 50.7956 90.224 50.7512C90.2722 50.6994 90.3308 50.6734 90.3998 50.6734H91.3409C91.4168 50.6734 91.4754 50.6994 91.5168 50.7512C91.565 50.803 91.5892 50.8659 91.5892 50.9399V57.0577H94.6401V50.9399C94.6401 50.8659 94.6643 50.803 94.7125 50.7512C94.7608 50.6994 94.8194 50.6734 94.8883 50.6734H95.8191C95.895 50.6734 95.957 50.6994 96.0053 50.7512C96.0536 50.803 96.0777 50.8659 96.0777 50.9399V57.0577H96.5741C96.65 57.0577 96.712 57.0836 96.7603 57.1354C96.8086 57.1872 96.8327 57.2502 96.8327 57.3242V59.7335C96.8327 59.8076 96.8086 59.8705 96.7603 59.9223C96.712 59.9741 96.65 60 96.5741 60H95.6433Z" fill="#252525"/>
<path d="M98.2272 58.4456C98.1582 58.4456 98.0996 58.4197 98.0514 58.3679C98.0031 58.3161 97.979 58.2494 97.979 58.168V50.951C97.979 50.8696 98.0031 50.803 98.0514 50.7512C98.0996 50.6994 98.1617 50.6734 98.2375 50.6734H99.1683C99.2442 50.6734 99.3028 50.6994 99.3442 50.7512C99.3924 50.803 99.4166 50.8696 99.4166 50.951V56.0473L102.819 50.8511C102.847 50.8141 102.885 50.7771 102.933 50.7401C102.981 50.6957 103.043 50.6734 103.119 50.6734H103.978C104.046 50.6734 104.105 50.6994 104.153 50.7512C104.202 50.803 104.226 50.8696 104.226 50.951V58.1791C104.226 58.2531 104.202 58.3161 104.153 58.3679C104.105 58.4197 104.046 58.4456 103.978 58.4456H103.047C102.971 58.4456 102.909 58.4197 102.861 58.3679C102.812 58.3161 102.788 58.2531 102.788 58.1791V53.1827L99.3959 58.2679C99.3752 58.2975 99.3407 58.3346 99.2924 58.379C99.2442 58.4234 99.1787 58.4456 99.0959 58.4456H98.2272Z" fill="#252525"/>
<path d="M110.077 58.4456C110.008 58.4456 109.946 58.4197 109.891 58.3679C109.843 58.3161 109.818 58.2531 109.818 58.1791V55.6365H108.298C107.816 55.6365 107.391 55.5403 107.026 55.3478C106.661 55.148 106.378 54.8667 106.178 54.504C105.978 54.1339 105.878 53.6935 105.878 53.1827C105.878 52.7238 105.975 52.3056 106.168 51.9281C106.361 51.5506 106.647 51.2471 107.026 51.0176C107.412 50.7882 107.888 50.6734 108.453 50.6734H111.008C111.084 50.6734 111.142 50.6994 111.184 50.7512C111.232 50.803 111.256 50.8659 111.256 50.9399V58.1791C111.256 58.2531 111.232 58.3161 111.184 58.3679C111.142 58.4197 111.084 58.4456 111.008 58.4456H110.077ZM105.94 58.4456C105.885 58.4456 105.837 58.4234 105.795 58.379C105.754 58.3346 105.733 58.279 105.733 58.2124C105.733 58.1754 105.744 58.1347 105.764 58.0903L107.471 55.1036L108.836 55.3478L107.295 58.1458C107.254 58.2198 107.202 58.2901 107.14 58.3567C107.085 58.416 106.998 58.4456 106.881 58.4456H105.94ZM108.515 54.3819H109.818V51.9059H108.515C108.15 51.9059 107.864 52.028 107.657 52.2723C107.457 52.5091 107.357 52.8163 107.357 53.1938C107.357 53.5787 107.454 53.8748 107.647 54.0821C107.84 54.2819 108.129 54.3819 108.515 54.3819Z" fill="#252525"/>
<path d="M11.1681 25C8.97829 25 7.06508 24.6644 5.42847 23.9931C3.79186 23.2986 2.50101 22.257 1.55593 20.8681C0.633897 19.4792 0.12678 17.7199 0.0345763 15.5903C0.0115254 14.6412 0 13.6227 0 12.5347C0 11.4468 0.0115254 10.4051 0.0345763 9.40973C0.12678 7.3264 0.645423 5.59028 1.59051 4.2014C2.55864 2.78936 3.86101 1.73612 5.49762 1.04167C7.15728 0.34723 9.04745 0 11.1681 0C12.6895 0 14.1071 0.185191 15.421 0.555562C16.7579 0.902784 17.9451 1.44676 18.9824 2.1875C20.0196 2.9051 20.8379 3.80787 21.4373 4.89584C22.0366 5.96065 22.3478 7.21065 22.3708 8.64583C22.3708 8.85417 22.2901 9.02778 22.1288 9.16667C21.9905 9.30556 21.8176 9.375 21.6101 9.375H15.7668C15.421 9.375 15.1674 9.30556 15.0061 9.16667C14.8447 9.02778 14.7064 8.78473 14.5912 8.43751C14.2915 7.44214 13.8535 6.77083 13.2773 6.42361C12.701 6.07638 11.998 5.90278 11.1681 5.90278C10.1539 5.90278 9.34711 6.18055 8.74779 6.73611C8.14846 7.26851 7.82575 8.2176 7.77965 9.58334C7.7105 11.4815 7.7105 13.4259 7.77965 15.4167C7.82575 16.7824 8.14846 17.7431 8.74779 18.2986C9.34711 18.831 10.1539 19.0972 11.1681 19.0972C11.998 19.0972 12.701 18.912 13.2773 18.5417C13.8766 18.1713 14.3146 17.5116 14.5912 16.5625C14.6834 16.1921 14.8102 15.9491 14.9715 15.8333C15.1559 15.6945 15.421 15.625 15.7668 15.625H21.6101C21.8176 15.625 21.9905 15.6945 22.1288 15.8333C22.2901 15.9722 22.3708 16.1458 22.3708 16.3542C22.3478 17.7894 22.0366 19.0509 21.4373 20.1389C20.8379 21.2037 20.0196 22.1065 18.9824 22.8472C17.9451 23.5648 16.7579 24.1088 15.421 24.4792C14.1071 24.8264 12.6895 25 11.1681 25Z" fill="#0561D9"/>
<path d="M26.443 24.6528C26.2125 24.6528 26.005 24.5718 25.8206 24.4097C25.6362 24.2477 25.544 24.0278 25.544 23.75V1.25C25.544 0.995372 25.6362 0.787038 25.8206 0.625001C26.005 0.439816 26.2125 0.347234 26.443 0.347234H46.5663C46.8199 0.347234 47.0274 0.439816 47.1887 0.625001C47.3731 0.787038 47.4653 0.995372 47.4653 1.25V23.75C47.4653 24.0046 47.3731 24.2245 47.1887 24.4097C47.0274 24.5718 46.8199 24.6528 46.5663 24.6528H40.9304C40.6769 24.6528 40.4579 24.5718 40.2735 24.4097C40.1121 24.2245 40.0314 24.0046 40.0314 23.75V6.94444H32.9779V23.75C32.9779 24.0046 32.8857 24.2245 32.7013 24.4097C32.5399 24.5718 32.3325 24.6528 32.0789 24.6528H26.443Z" fill="#0561D9"/>
<path d="M52.679 24.6528C52.4485 24.6528 52.2411 24.5718 52.0567 24.4097C51.8723 24.2245 51.7801 24.0046 51.7801 23.75V1.25C51.7801 0.995372 51.8723 0.787038 52.0567 0.625001C52.2411 0.439816 52.4485 0.347234 52.679 0.347234H69.6214C69.875 0.347234 70.0939 0.439816 70.2784 0.625001C70.4628 0.787038 70.555 0.995372 70.555 1.25V5.34723C70.555 5.57872 70.4628 5.78704 70.2784 5.97223C70.0939 6.15741 69.875 6.25 69.6214 6.25H58.9373V9.6875H68.8607C69.1143 9.6875 69.3333 9.78009 69.5177 9.96528C69.7021 10.1273 69.7943 10.3356 69.7943 10.5903V14.3403C69.7943 14.5949 69.7021 14.8148 69.5177 15C69.3333 15.162 69.1143 15.2431 68.8607 15.2431H58.9373V18.75H69.898C70.1516 18.75 70.3705 18.8426 70.555 19.0278C70.7394 19.213 70.8316 19.4329 70.8316 19.6875V23.75C70.8316 24.0046 70.7394 24.2245 70.555 24.4097C70.3705 24.5718 70.1516 24.6528 69.898 24.6528H52.679Z" fill="#0561D9"/>
<path d="M75.2684 24.6528C75.0379 24.6528 74.8304 24.5718 74.646 24.4097C74.4616 24.2477 74.3694 24.0278 74.3694 23.75V1.25C74.3694 0.995372 74.4616 0.787038 74.646 0.625001C74.8304 0.439816 75.0379 0.347234 75.2684 0.347234H80.9043C81.1579 0.347234 81.3653 0.439816 81.5267 0.625001C81.7111 0.787038 81.8033 0.995372 81.8033 1.25V9.09723H83.1518L87.785 1.0764C87.9002 0.891213 88.0616 0.729165 88.2691 0.590277C88.4996 0.428239 88.7877 0.347234 89.1335 0.347234H95.4609C95.6684 0.347234 95.8412 0.428239 95.9796 0.590277C96.1179 0.729165 96.187 0.902781 96.187 1.11111C96.187 1.22685 96.1524 1.35417 96.0833 1.49306L89.7558 12.0139L96.7057 23.5069C96.7518 23.5764 96.7748 23.7037 96.7748 23.8889C96.7748 24.0972 96.6941 24.2824 96.5328 24.4444C96.3945 24.5833 96.2216 24.6528 96.0141 24.6528H89.5138C89.0989 24.6528 88.7877 24.5602 88.5802 24.375C88.3958 24.1667 88.2691 24.0162 88.1999 23.9236L83.3938 15.6944H81.8033V23.75C81.8033 24.0046 81.7111 24.2245 81.5267 24.4097C81.3653 24.5718 81.1579 24.6528 80.9043 24.6528H75.2684Z" fill="#0561D9"/>
<path d="M105.75 24.6528C105.496 24.6528 105.277 24.5718 105.093 24.4097C104.931 24.2245 104.851 24.0046 104.851 23.75V6.80556H98.9034C98.6498 6.80556 98.4309 6.72454 98.2465 6.5625C98.0851 6.37732 98.0044 6.15741 98.0044 5.90278V1.25C98.0044 0.995372 98.0851 0.787038 98.2465 0.625001C98.4309 0.439816 98.6498 0.347234 98.9034 0.347234H118.335C118.589 0.347234 118.796 0.439816 118.958 0.625001C119.142 0.787038 119.234 0.995372 119.234 1.25V5.90278C119.234 6.15741 119.142 6.37732 118.958 6.5625C118.796 6.72454 118.589 6.80556 118.335 6.80556H112.388V23.75C112.388 24.0046 112.296 24.2245 112.112 24.4097C111.95 24.5718 111.743 24.6528 111.489 24.6528H105.75Z" fill="#0561D9"/>
<path d="M122.946 24.6528C122.715 24.6528 122.508 24.5718 122.323 24.4097C122.139 24.2245 122.047 24.0046 122.047 23.75V1.25C122.047 0.995372 122.139 0.787038 122.323 0.625001C122.508 0.439816 122.715 0.347234 122.946 0.347234H133.042C135.047 0.347234 136.788 0.64815 138.263 1.25C139.761 1.85185 140.925 2.76621 141.755 3.99306C142.585 5.21991 143 6.75926 143 8.61111C143 10.463 142.585 11.9907 141.755 13.1944C140.925 14.375 139.761 15.2431 138.263 15.7986C136.788 16.3542 135.047 16.6319 133.042 16.6319H129.757V23.75C129.757 24.0046 129.665 24.2245 129.481 24.4097C129.319 24.5718 129.112 24.6528 128.858 24.6528H122.946ZM129.619 11.0417H132.869C133.538 11.0417 134.102 10.8449 134.563 10.4514C135.047 10.0347 135.289 9.39815 135.289 8.54167C135.289 7.89352 135.105 7.30325 134.736 6.77084C134.367 6.23843 133.745 5.97223 132.869 5.97223H129.619V11.0417Z" fill="#0561D9"/>
</svg>
