<svg width="60" height="60" viewBox="0 0 60 60" fill="none" xmlns="http://www.w3.org/2000/svg">
<path d="M39.2186 0H20.8125C4 0 0 4 0 20.7811V39.1875C0 55.9997 3.96888 60 20.7811 60H39.1875C56 60 60 56.0314 60 39.2186V20.8125C60 4 56.0314 0 39.2186 0ZM48.4375 42.8125H44.0625C42.4061 42.8125 41.9061 41.4686 38.9375 38.5C36.3439 36 35.25 35.6875 34.5936 35.6875C33.6875 35.6875 33.4375 35.9372 33.4375 37.1875V41.125C33.4375 42.1875 33.0936 42.8125 30.3125 42.8125C27.6138 42.6311 24.9967 41.8112 22.6765 40.4204C20.3566 39.0293 18.4003 37.1074 16.9686 34.8122C13.5702 30.5821 11.2054 25.6173 10.0625 20.3125C10.0625 19.6561 10.3125 19.0625 11.5625 19.0625H15.9375C17.0625 19.0625 17.4689 19.5625 17.9064 20.7189C20.0311 26.9689 23.6564 32.4064 25.125 32.4064C25.6875 32.4064 25.9375 32.1564 25.9375 30.75V24.3122C25.75 21.375 24.1875 21.125 24.1875 20.0625C24.2082 19.7821 24.3372 19.5209 24.5472 19.3342C24.7571 19.1475 25.0316 19.05 25.3125 19.0625H32.1875C33.125 19.0625 33.4375 19.5311 33.4375 20.6561V29.3436C33.4375 30.2814 33.8436 30.5936 34.125 30.5936C34.6875 30.5936 35.125 30.2814 36.1564 29.25C38.3722 26.5477 40.1829 23.5367 41.5314 20.3125C41.6689 19.9245 41.9298 19.5923 42.274 19.3666C42.6184 19.1408 43.027 19.0339 43.4375 19.0625H47.8125C49.125 19.0625 49.4064 19.7186 49.125 20.6561C47.5332 24.2212 45.5635 27.6051 43.25 30.75C42.7811 31.4689 42.5936 31.8439 43.25 32.6875C43.6875 33.3439 45.2186 34.6247 46.25 35.8436C47.75 37.3398 48.9954 39.0712 49.9375 40.9686C50.3125 42.1875 49.6875 42.8125 48.4375 42.8125Z" fill="#418EF8"/>
</svg>
